<mxfile host="Electron" agent="Mozilla/5.0 (Windows NT 10.0; Win64; x64) AppleWebKit/537.36 (KHTML, like Gecko) draw.io/25.0.1 Chrome/128.0.6613.186 Electron/32.2.6 Safari/537.36" version="25.0.1" pages="2">
  <diagram name="Page-1" id="dTRATmKSl7qD7l3ljag0">
    <mxGraphModel dx="3856" dy="1391" grid="1" gridSize="10" guides="1" tooltips="1" connect="1" arrows="1" fold="1" page="1" pageScale="1" pageWidth="827" pageHeight="1169" math="0" shadow="0">
      <root>
        <mxCell id="0" />
        <mxCell id="1" parent="0" />
        <mxCell id="T3X0o6zHJ9nhCLRSBqEm-597" value="Resltat" style="swimlane;fontStyle=0;childLayout=stackLayout;horizontal=1;startSize=30;horizontalStack=0;resizeParent=1;resizeParentMax=0;resizeLast=0;collapsible=1;marginBottom=0;whiteSpace=wrap;html=1;" vertex="1" parent="1">
          <mxGeometry x="-670" y="370" width="140" height="120" as="geometry" />
        </mxCell>
        <mxCell id="T3X0o6zHJ9nhCLRSBqEm-598" value="etudiant;Etudiant" style="text;strokeColor=none;fillColor=none;align=left;verticalAlign=middle;spacingLeft=4;spacingRight=4;overflow=hidden;points=[[0,0.5],[1,0.5]];portConstraint=eastwest;rotatable=0;whiteSpace=wrap;html=1;" vertex="1" parent="T3X0o6zHJ9nhCLRSBqEm-597">
          <mxGeometry y="30" width="140" height="30" as="geometry" />
        </mxCell>
        <mxCell id="T3X0o6zHJ9nhCLRSBqEm-599" value="evaluation:Evaluation" style="text;strokeColor=none;fillColor=none;align=left;verticalAlign=middle;spacingLeft=4;spacingRight=4;overflow=hidden;points=[[0,0.5],[1,0.5]];portConstraint=eastwest;rotatable=0;whiteSpace=wrap;html=1;" vertex="1" parent="T3X0o6zHJ9nhCLRSBqEm-597">
          <mxGeometry y="60" width="140" height="30" as="geometry" />
        </mxCell>
        <mxCell id="T3X0o6zHJ9nhCLRSBqEm-600" value="note:Note" style="text;strokeColor=none;fillColor=none;align=left;verticalAlign=middle;spacingLeft=4;spacingRight=4;overflow=hidden;points=[[0,0.5],[1,0.5]];portConstraint=eastwest;rotatable=0;whiteSpace=wrap;html=1;" vertex="1" parent="T3X0o6zHJ9nhCLRSBqEm-597">
          <mxGeometry y="90" width="140" height="30" as="geometry" />
        </mxCell>
        <mxCell id="T3X0o6zHJ9nhCLRSBqEm-601" value="Evaluation" style="swimlane;fontStyle=0;childLayout=stackLayout;horizontal=1;startSize=30;horizontalStack=0;resizeParent=1;resizeParentMax=0;resizeLast=0;collapsible=1;marginBottom=0;whiteSpace=wrap;html=1;" vertex="1" parent="1">
          <mxGeometry x="-730" y="590" width="140" height="90" as="geometry" />
        </mxCell>
        <mxCell id="T3X0o6zHJ9nhCLRSBqEm-602" value="type:TypeEvaluation" style="text;strokeColor=none;fillColor=none;align=left;verticalAlign=middle;spacingLeft=4;spacingRight=4;overflow=hidden;points=[[0,0.5],[1,0.5]];portConstraint=eastwest;rotatable=0;whiteSpace=wrap;html=1;" vertex="1" parent="T3X0o6zHJ9nhCLRSBqEm-601">
          <mxGeometry y="30" width="140" height="30" as="geometry" />
        </mxCell>
        <mxCell id="T3X0o6zHJ9nhCLRSBqEm-603" value="matiere;Matiere" style="text;strokeColor=none;fillColor=none;align=left;verticalAlign=middle;spacingLeft=4;spacingRight=4;overflow=hidden;points=[[0,0.5],[1,0.5]];portConstraint=eastwest;rotatable=0;whiteSpace=wrap;html=1;" vertex="1" parent="T3X0o6zHJ9nhCLRSBqEm-601">
          <mxGeometry y="60" width="140" height="30" as="geometry" />
        </mxCell>
        <mxCell id="T3X0o6zHJ9nhCLRSBqEm-605" value="Enseignant" style="swimlane;fontStyle=0;childLayout=stackLayout;horizontal=1;startSize=30;horizontalStack=0;resizeParent=1;resizeParentMax=0;resizeLast=0;collapsible=1;marginBottom=0;whiteSpace=wrap;html=1;" vertex="1" parent="1">
          <mxGeometry x="70" y="590" width="140" height="90" as="geometry" />
        </mxCell>
        <mxCell id="T3X0o6zHJ9nhCLRSBqEm-606" value="publiContenu" style="text;strokeColor=none;fillColor=none;align=left;verticalAlign=middle;spacingLeft=4;spacingRight=4;overflow=hidden;points=[[0,0.5],[1,0.5]];portConstraint=eastwest;rotatable=0;whiteSpace=wrap;html=1;" vertex="1" parent="T3X0o6zHJ9nhCLRSBqEm-605">
          <mxGeometry y="30" width="140" height="30" as="geometry" />
        </mxCell>
        <mxCell id="T3X0o6zHJ9nhCLRSBqEm-607" value="cree:Forum,quiz,devoir" style="text;strokeColor=none;fillColor=none;align=left;verticalAlign=middle;spacingLeft=4;spacingRight=4;overflow=hidden;points=[[0,0.5],[1,0.5]];portConstraint=eastwest;rotatable=0;whiteSpace=wrap;html=1;" vertex="1" parent="T3X0o6zHJ9nhCLRSBqEm-605">
          <mxGeometry y="60" width="140" height="30" as="geometry" />
        </mxCell>
        <mxCell id="SGHABH59tKvpZmnrTRFc-54" style="edgeStyle=orthogonalEdgeStyle;curved=1;rounded=0;orthogonalLoop=1;jettySize=auto;html=1;exitX=0.75;exitY=0;exitDx=0;exitDy=0;entryX=0.306;entryY=1.051;entryDx=0;entryDy=0;entryPerimeter=0;" edge="1" parent="1" source="T3X0o6zHJ9nhCLRSBqEm-609" target="T3X0o6zHJ9nhCLRSBqEm-603">
          <mxGeometry relative="1" as="geometry">
            <mxPoint x="-660.0000000000001" y="710" as="targetPoint" />
            <Array as="points">
              <mxPoint x="-705" y="760" />
              <mxPoint x="-690" y="760" />
              <mxPoint x="-690" y="710" />
              <mxPoint x="-687" y="710" />
            </Array>
          </mxGeometry>
        </mxCell>
        <mxCell id="T3X0o6zHJ9nhCLRSBqEm-609" value="Devoir" style="swimlane;fontStyle=0;childLayout=stackLayout;horizontal=1;startSize=30;horizontalStack=0;resizeParent=1;resizeParentMax=0;resizeLast=0;collapsible=1;marginBottom=0;whiteSpace=wrap;html=1;" vertex="1" parent="1">
          <mxGeometry x="-810" y="810" width="140" height="90" as="geometry" />
        </mxCell>
        <mxCell id="T3X0o6zHJ9nhCLRSBqEm-610" value="instruction;String" style="text;strokeColor=none;fillColor=none;align=left;verticalAlign=middle;spacingLeft=4;spacingRight=4;overflow=hidden;points=[[0,0.5],[1,0.5]];portConstraint=eastwest;rotatable=0;whiteSpace=wrap;html=1;" vertex="1" parent="T3X0o6zHJ9nhCLRSBqEm-609">
          <mxGeometry y="30" width="140" height="30" as="geometry" />
        </mxCell>
        <mxCell id="T3X0o6zHJ9nhCLRSBqEm-611" value="datesubmission:date" style="text;strokeColor=none;fillColor=none;align=left;verticalAlign=middle;spacingLeft=4;spacingRight=4;overflow=hidden;points=[[0,0.5],[1,0.5]];portConstraint=eastwest;rotatable=0;whiteSpace=wrap;html=1;" vertex="1" parent="T3X0o6zHJ9nhCLRSBqEm-609">
          <mxGeometry y="60" width="140" height="30" as="geometry" />
        </mxCell>
        <mxCell id="T3X0o6zHJ9nhCLRSBqEm-613" value="Etudiant" style="swimlane;fontStyle=0;childLayout=stackLayout;horizontal=1;startSize=30;horizontalStack=0;resizeParent=1;resizeParentMax=0;resizeLast=0;collapsible=1;marginBottom=0;whiteSpace=wrap;html=1;" vertex="1" parent="1">
          <mxGeometry x="-520" y="585" width="140" height="120" as="geometry" />
        </mxCell>
        <mxCell id="T3X0o6zHJ9nhCLRSBqEm-614" value="Item 1" style="text;strokeColor=none;fillColor=none;align=left;verticalAlign=middle;spacingLeft=4;spacingRight=4;overflow=hidden;points=[[0,0.5],[1,0.5]];portConstraint=eastwest;rotatable=0;whiteSpace=wrap;html=1;" vertex="1" parent="T3X0o6zHJ9nhCLRSBqEm-613">
          <mxGeometry y="30" width="140" height="30" as="geometry" />
        </mxCell>
        <mxCell id="T3X0o6zHJ9nhCLRSBqEm-615" value="Item 2" style="text;strokeColor=none;fillColor=none;align=left;verticalAlign=middle;spacingLeft=4;spacingRight=4;overflow=hidden;points=[[0,0.5],[1,0.5]];portConstraint=eastwest;rotatable=0;whiteSpace=wrap;html=1;" vertex="1" parent="T3X0o6zHJ9nhCLRSBqEm-613">
          <mxGeometry y="60" width="140" height="30" as="geometry" />
        </mxCell>
        <mxCell id="T3X0o6zHJ9nhCLRSBqEm-616" value="Item 3" style="text;strokeColor=none;fillColor=none;align=left;verticalAlign=middle;spacingLeft=4;spacingRight=4;overflow=hidden;points=[[0,0.5],[1,0.5]];portConstraint=eastwest;rotatable=0;whiteSpace=wrap;html=1;" vertex="1" parent="T3X0o6zHJ9nhCLRSBqEm-613">
          <mxGeometry y="90" width="140" height="30" as="geometry" />
        </mxCell>
        <mxCell id="T3X0o6zHJ9nhCLRSBqEm-617" value="Role" style="swimlane;fontStyle=0;childLayout=stackLayout;horizontal=1;startSize=30;horizontalStack=0;resizeParent=1;resizeParentMax=0;resizeLast=0;collapsible=1;marginBottom=0;whiteSpace=wrap;html=1;" vertex="1" parent="1">
          <mxGeometry x="290" y="600" width="140" height="60" as="geometry" />
        </mxCell>
        <mxCell id="T3X0o6zHJ9nhCLRSBqEm-618" value="Nom" style="text;strokeColor=none;fillColor=none;align=left;verticalAlign=middle;spacingLeft=4;spacingRight=4;overflow=hidden;points=[[0,0.5],[1,0.5]];portConstraint=eastwest;rotatable=0;whiteSpace=wrap;html=1;" vertex="1" parent="T3X0o6zHJ9nhCLRSBqEm-617">
          <mxGeometry y="30" width="140" height="30" as="geometry" />
        </mxCell>
        <mxCell id="T3X0o6zHJ9nhCLRSBqEm-621" value="LeÃ§on" style="swimlane;fontStyle=0;childLayout=stackLayout;horizontal=1;startSize=30;horizontalStack=0;resizeParent=1;resizeParentMax=0;resizeLast=0;collapsible=1;marginBottom=0;whiteSpace=wrap;html=1;" vertex="1" parent="1">
          <mxGeometry x="-147" y="1280" width="140" height="90" as="geometry" />
        </mxCell>
        <mxCell id="T3X0o6zHJ9nhCLRSBqEm-622" value="titre" style="text;strokeColor=none;fillColor=none;align=left;verticalAlign=middle;spacingLeft=4;spacingRight=4;overflow=hidden;points=[[0,0.5],[1,0.5]];portConstraint=eastwest;rotatable=0;whiteSpace=wrap;html=1;" vertex="1" parent="T3X0o6zHJ9nhCLRSBqEm-621">
          <mxGeometry y="30" width="140" height="30" as="geometry" />
        </mxCell>
        <mxCell id="T3X0o6zHJ9nhCLRSBqEm-623" value="contenu:contenu" style="text;strokeColor=none;fillColor=none;align=left;verticalAlign=middle;spacingLeft=4;spacingRight=4;overflow=hidden;points=[[0,0.5],[1,0.5]];portConstraint=eastwest;rotatable=0;whiteSpace=wrap;html=1;" vertex="1" parent="T3X0o6zHJ9nhCLRSBqEm-621">
          <mxGeometry y="60" width="140" height="30" as="geometry" />
        </mxCell>
        <mxCell id="T3X0o6zHJ9nhCLRSBqEm-625" value="Chapitre" style="swimlane;fontStyle=0;childLayout=stackLayout;horizontal=1;startSize=30;horizontalStack=0;resizeParent=1;resizeParentMax=0;resizeLast=0;collapsible=1;marginBottom=0;whiteSpace=wrap;html=1;" vertex="1" parent="1">
          <mxGeometry x="-147" y="1110" width="140" height="90" as="geometry" />
        </mxCell>
        <mxCell id="T3X0o6zHJ9nhCLRSBqEm-626" value="titre" style="text;strokeColor=none;fillColor=none;align=left;verticalAlign=middle;spacingLeft=4;spacingRight=4;overflow=hidden;points=[[0,0.5],[1,0.5]];portConstraint=eastwest;rotatable=0;whiteSpace=wrap;html=1;" vertex="1" parent="T3X0o6zHJ9nhCLRSBqEm-625">
          <mxGeometry y="30" width="140" height="30" as="geometry" />
        </mxCell>
        <mxCell id="T3X0o6zHJ9nhCLRSBqEm-627" value="leÃ§on" style="text;strokeColor=none;fillColor=none;align=left;verticalAlign=middle;spacingLeft=4;spacingRight=4;overflow=hidden;points=[[0,0.5],[1,0.5]];portConstraint=eastwest;rotatable=0;whiteSpace=wrap;html=1;" vertex="1" parent="T3X0o6zHJ9nhCLRSBqEm-625">
          <mxGeometry y="60" width="140" height="30" as="geometry" />
        </mxCell>
        <mxCell id="T3X0o6zHJ9nhCLRSBqEm-629" value="Matiere" style="swimlane;fontStyle=0;childLayout=stackLayout;horizontal=1;startSize=30;horizontalStack=0;resizeParent=1;resizeParentMax=0;resizeLast=0;collapsible=1;marginBottom=0;whiteSpace=wrap;html=1;" vertex="1" parent="1">
          <mxGeometry x="-147" y="760" width="140" height="120" as="geometry" />
        </mxCell>
        <mxCell id="T3X0o6zHJ9nhCLRSBqEm-630" value="Item 1" style="text;strokeColor=none;fillColor=none;align=left;verticalAlign=middle;spacingLeft=4;spacingRight=4;overflow=hidden;points=[[0,0.5],[1,0.5]];portConstraint=eastwest;rotatable=0;whiteSpace=wrap;html=1;" vertex="1" parent="T3X0o6zHJ9nhCLRSBqEm-629">
          <mxGeometry y="30" width="140" height="30" as="geometry" />
        </mxCell>
        <mxCell id="T3X0o6zHJ9nhCLRSBqEm-631" value="Item 2" style="text;strokeColor=none;fillColor=none;align=left;verticalAlign=middle;spacingLeft=4;spacingRight=4;overflow=hidden;points=[[0,0.5],[1,0.5]];portConstraint=eastwest;rotatable=0;whiteSpace=wrap;html=1;" vertex="1" parent="T3X0o6zHJ9nhCLRSBqEm-629">
          <mxGeometry y="60" width="140" height="30" as="geometry" />
        </mxCell>
        <mxCell id="T3X0o6zHJ9nhCLRSBqEm-632" value="Item 3" style="text;strokeColor=none;fillColor=none;align=left;verticalAlign=middle;spacingLeft=4;spacingRight=4;overflow=hidden;points=[[0,0.5],[1,0.5]];portConstraint=eastwest;rotatable=0;whiteSpace=wrap;html=1;" vertex="1" parent="T3X0o6zHJ9nhCLRSBqEm-629">
          <mxGeometry y="90" width="140" height="30" as="geometry" />
        </mxCell>
        <mxCell id="T3X0o6zHJ9nhCLRSBqEm-633" value="Cours" style="swimlane;fontStyle=0;childLayout=stackLayout;horizontal=1;startSize=30;horizontalStack=0;resizeParent=1;resizeParentMax=0;resizeLast=0;collapsible=1;marginBottom=0;whiteSpace=wrap;html=1;" vertex="1" parent="1">
          <mxGeometry x="-147" y="950" width="140" height="90" as="geometry" />
        </mxCell>
        <mxCell id="T3X0o6zHJ9nhCLRSBqEm-634" value="Matiere" style="text;strokeColor=none;fillColor=none;align=left;verticalAlign=middle;spacingLeft=4;spacingRight=4;overflow=hidden;points=[[0,0.5],[1,0.5]];portConstraint=eastwest;rotatable=0;whiteSpace=wrap;html=1;" vertex="1" parent="T3X0o6zHJ9nhCLRSBqEm-633">
          <mxGeometry y="30" width="140" height="30" as="geometry" />
        </mxCell>
        <mxCell id="T3X0o6zHJ9nhCLRSBqEm-635" value="Chapitre" style="text;strokeColor=none;fillColor=none;align=left;verticalAlign=middle;spacingLeft=4;spacingRight=4;overflow=hidden;points=[[0,0.5],[1,0.5]];portConstraint=eastwest;rotatable=0;whiteSpace=wrap;html=1;" vertex="1" parent="T3X0o6zHJ9nhCLRSBqEm-633">
          <mxGeometry y="60" width="140" height="30" as="geometry" />
        </mxCell>
        <mxCell id="T3X0o6zHJ9nhCLRSBqEm-637" value="Comptabilite" style="swimlane;fontStyle=0;childLayout=stackLayout;horizontal=1;startSize=30;horizontalStack=0;resizeParent=1;resizeParentMax=0;resizeLast=0;collapsible=1;marginBottom=0;whiteSpace=wrap;html=1;" vertex="1" parent="1">
          <mxGeometry x="-147" y="585" width="140" height="120" as="geometry" />
        </mxCell>
        <mxCell id="T3X0o6zHJ9nhCLRSBqEm-638" value="payementEtudiant" style="text;strokeColor=none;fillColor=none;align=left;verticalAlign=middle;spacingLeft=4;spacingRight=4;overflow=hidden;points=[[0,0.5],[1,0.5]];portConstraint=eastwest;rotatable=0;whiteSpace=wrap;html=1;" vertex="1" parent="T3X0o6zHJ9nhCLRSBqEm-637">
          <mxGeometry y="30" width="140" height="30" as="geometry" />
        </mxCell>
        <mxCell id="T3X0o6zHJ9nhCLRSBqEm-639" value="payeEnseignant" style="text;strokeColor=none;fillColor=none;align=left;verticalAlign=middle;spacingLeft=4;spacingRight=4;overflow=hidden;points=[[0,0.5],[1,0.5]];portConstraint=eastwest;rotatable=0;whiteSpace=wrap;html=1;" vertex="1" parent="T3X0o6zHJ9nhCLRSBqEm-637">
          <mxGeometry y="60" width="140" height="30" as="geometry" />
        </mxCell>
        <mxCell id="T3X0o6zHJ9nhCLRSBqEm-640" value="rapportFinance" style="text;strokeColor=none;fillColor=none;align=left;verticalAlign=middle;spacingLeft=4;spacingRight=4;overflow=hidden;points=[[0,0.5],[1,0.5]];portConstraint=eastwest;rotatable=0;whiteSpace=wrap;html=1;" vertex="1" parent="T3X0o6zHJ9nhCLRSBqEm-637">
          <mxGeometry y="90" width="140" height="30" as="geometry" />
        </mxCell>
        <mxCell id="SGHABH59tKvpZmnrTRFc-56" style="edgeStyle=orthogonalEdgeStyle;curved=1;rounded=0;orthogonalLoop=1;jettySize=auto;html=1;exitX=0.25;exitY=0;exitDx=0;exitDy=0;entryX=0.5;entryY=1;entryDx=0;entryDy=0;entryPerimeter=0;" edge="1" parent="1" source="T3X0o6zHJ9nhCLRSBqEm-641" target="T3X0o6zHJ9nhCLRSBqEm-603">
          <mxGeometry relative="1" as="geometry">
            <mxPoint x="-635.92" y="709.4000000000001" as="targetPoint" />
          </mxGeometry>
        </mxCell>
        <mxCell id="T3X0o6zHJ9nhCLRSBqEm-641" value="Quiz" style="swimlane;fontStyle=0;childLayout=stackLayout;horizontal=1;startSize=30;horizontalStack=0;resizeParent=1;resizeParentMax=0;resizeLast=0;collapsible=1;marginBottom=0;whiteSpace=wrap;html=1;" vertex="1" parent="1">
          <mxGeometry x="-519" y="800" width="140" height="90" as="geometry" />
        </mxCell>
        <mxCell id="T3X0o6zHJ9nhCLRSBqEm-642" value="question" style="text;strokeColor=none;fillColor=none;align=left;verticalAlign=middle;spacingLeft=4;spacingRight=4;overflow=hidden;points=[[0,0.5],[1,0.5]];portConstraint=eastwest;rotatable=0;whiteSpace=wrap;html=1;" vertex="1" parent="T3X0o6zHJ9nhCLRSBqEm-641">
          <mxGeometry y="30" width="140" height="30" as="geometry" />
        </mxCell>
        <mxCell id="T3X0o6zHJ9nhCLRSBqEm-643" value="reponse" style="text;strokeColor=none;fillColor=none;align=left;verticalAlign=middle;spacingLeft=4;spacingRight=4;overflow=hidden;points=[[0,0.5],[1,0.5]];portConstraint=eastwest;rotatable=0;whiteSpace=wrap;html=1;" vertex="1" parent="T3X0o6zHJ9nhCLRSBqEm-641">
          <mxGeometry y="60" width="140" height="30" as="geometry" />
        </mxCell>
        <mxCell id="T3X0o6zHJ9nhCLRSBqEm-645" value="Question" style="swimlane;fontStyle=0;childLayout=stackLayout;horizontal=1;startSize=30;horizontalStack=0;resizeParent=1;resizeParentMax=0;resizeLast=0;collapsible=1;marginBottom=0;whiteSpace=wrap;html=1;" vertex="1" parent="1">
          <mxGeometry x="-519" y="1020" width="140" height="90" as="geometry" />
        </mxCell>
        <mxCell id="T3X0o6zHJ9nhCLRSBqEm-646" value="texte" style="text;strokeColor=none;fillColor=none;align=left;verticalAlign=middle;spacingLeft=4;spacingRight=4;overflow=hidden;points=[[0,0.5],[1,0.5]];portConstraint=eastwest;rotatable=0;whiteSpace=wrap;html=1;" vertex="1" parent="T3X0o6zHJ9nhCLRSBqEm-645">
          <mxGeometry y="30" width="140" height="30" as="geometry" />
        </mxCell>
        <mxCell id="T3X0o6zHJ9nhCLRSBqEm-647" value="reponse" style="text;strokeColor=none;fillColor=none;align=left;verticalAlign=middle;spacingLeft=4;spacingRight=4;overflow=hidden;points=[[0,0.5],[1,0.5]];portConstraint=eastwest;rotatable=0;whiteSpace=wrap;html=1;" vertex="1" parent="T3X0o6zHJ9nhCLRSBqEm-645">
          <mxGeometry y="60" width="140" height="30" as="geometry" />
        </mxCell>
        <mxCell id="T3X0o6zHJ9nhCLRSBqEm-649" value="reponse" style="swimlane;fontStyle=0;childLayout=stackLayout;horizontal=1;startSize=30;horizontalStack=0;resizeParent=1;resizeParentMax=0;resizeLast=0;collapsible=1;marginBottom=0;whiteSpace=wrap;html=1;" vertex="1" parent="1">
          <mxGeometry x="-519" y="1240" width="140" height="90" as="geometry" />
        </mxCell>
        <mxCell id="T3X0o6zHJ9nhCLRSBqEm-650" value="texte" style="text;strokeColor=none;fillColor=none;align=left;verticalAlign=middle;spacingLeft=4;spacingRight=4;overflow=hidden;points=[[0,0.5],[1,0.5]];portConstraint=eastwest;rotatable=0;whiteSpace=wrap;html=1;" vertex="1" parent="T3X0o6zHJ9nhCLRSBqEm-649">
          <mxGeometry y="30" width="140" height="30" as="geometry" />
        </mxCell>
        <mxCell id="T3X0o6zHJ9nhCLRSBqEm-651" value="estCorrecte" style="text;strokeColor=none;fillColor=none;align=left;verticalAlign=middle;spacingLeft=4;spacingRight=4;overflow=hidden;points=[[0,0.5],[1,0.5]];portConstraint=eastwest;rotatable=0;whiteSpace=wrap;html=1;" vertex="1" parent="T3X0o6zHJ9nhCLRSBqEm-649">
          <mxGeometry y="60" width="140" height="30" as="geometry" />
        </mxCell>
        <mxCell id="SGHABH59tKvpZmnrTRFc-2" value="Contenu" style="swimlane;fontStyle=0;childLayout=stackLayout;horizontal=1;startSize=30;horizontalStack=0;resizeParent=1;resizeParentMax=0;resizeLast=0;collapsible=1;marginBottom=0;whiteSpace=wrap;html=1;" vertex="1" parent="1">
          <mxGeometry x="-147" y="1450" width="140" height="90" as="geometry" />
        </mxCell>
        <mxCell id="SGHABH59tKvpZmnrTRFc-3" value="type:typecontenu" style="text;strokeColor=none;fillColor=none;align=left;verticalAlign=middle;spacingLeft=4;spacingRight=4;overflow=hidden;points=[[0,0.5],[1,0.5]];portConstraint=eastwest;rotatable=0;whiteSpace=wrap;html=1;" vertex="1" parent="SGHABH59tKvpZmnrTRFc-2">
          <mxGeometry y="30" width="140" height="30" as="geometry" />
        </mxCell>
        <mxCell id="SGHABH59tKvpZmnrTRFc-4" value="data" style="text;strokeColor=none;fillColor=none;align=left;verticalAlign=middle;spacingLeft=4;spacingRight=4;overflow=hidden;points=[[0,0.5],[1,0.5]];portConstraint=eastwest;rotatable=0;whiteSpace=wrap;html=1;" vertex="1" parent="SGHABH59tKvpZmnrTRFc-2">
          <mxGeometry y="60" width="140" height="30" as="geometry" />
        </mxCell>
        <mxCell id="SGHABH59tKvpZmnrTRFc-10" value="Administration" style="swimlane;fontStyle=0;childLayout=stackLayout;horizontal=1;startSize=30;horizontalStack=0;resizeParent=1;resizeParentMax=0;resizeLast=0;collapsible=1;marginBottom=0;whiteSpace=wrap;html=1;" vertex="1" parent="1">
          <mxGeometry x="490" y="600" width="180" height="120" as="geometry" />
        </mxCell>
        <mxCell id="SGHABH59tKvpZmnrTRFc-11" value="ajouterUtilisation" style="text;strokeColor=none;fillColor=none;align=left;verticalAlign=middle;spacingLeft=4;spacingRight=4;overflow=hidden;points=[[0,0.5],[1,0.5]];portConstraint=eastwest;rotatable=0;whiteSpace=wrap;html=1;" vertex="1" parent="SGHABH59tKvpZmnrTRFc-10">
          <mxGeometry y="30" width="180" height="30" as="geometry" />
        </mxCell>
        <mxCell id="SGHABH59tKvpZmnrTRFc-12" value="definiRoleUtilisateur" style="text;strokeColor=none;fillColor=none;align=left;verticalAlign=middle;spacingLeft=4;spacingRight=4;overflow=hidden;points=[[0,0.5],[1,0.5]];portConstraint=eastwest;rotatable=0;whiteSpace=wrap;html=1;" vertex="1" parent="SGHABH59tKvpZmnrTRFc-10">
          <mxGeometry y="60" width="180" height="30" as="geometry" />
        </mxCell>
        <mxCell id="SGHABH59tKvpZmnrTRFc-13" value="superviseurUtilisateur" style="text;strokeColor=none;fillColor=none;align=left;verticalAlign=middle;spacingLeft=4;spacingRight=4;overflow=hidden;points=[[0,0.5],[1,0.5]];portConstraint=eastwest;rotatable=0;whiteSpace=wrap;html=1;" vertex="1" parent="SGHABH59tKvpZmnrTRFc-10">
          <mxGeometry y="90" width="180" height="30" as="geometry" />
        </mxCell>
        <mxCell id="SGHABH59tKvpZmnrTRFc-14" value="Utilisateur" style="swimlane;fontStyle=0;childLayout=stackLayout;horizontal=1;startSize=31;horizontalStack=0;resizeParent=1;resizeParentMax=0;resizeLast=0;collapsible=1;marginBottom=0;whiteSpace=wrap;html=1;" vertex="1" parent="1">
          <mxGeometry x="270" y="310" width="180" height="151" as="geometry">
            <mxRectangle x="280" y="320" width="90" height="30" as="alternateBounds" />
          </mxGeometry>
        </mxCell>
        <mxCell id="SGHABH59tKvpZmnrTRFc-15" value="nom" style="text;strokeColor=none;fillColor=none;align=left;verticalAlign=middle;spacingLeft=4;spacingRight=4;overflow=hidden;points=[[0,0.5],[1,0.5]];portConstraint=eastwest;rotatable=0;whiteSpace=wrap;html=1;" vertex="1" parent="SGHABH59tKvpZmnrTRFc-14">
          <mxGeometry y="31" width="180" height="30" as="geometry" />
        </mxCell>
        <mxCell id="SGHABH59tKvpZmnrTRFc-16" value="email" style="text;strokeColor=none;fillColor=none;align=left;verticalAlign=middle;spacingLeft=4;spacingRight=4;overflow=hidden;points=[[0,0.5],[1,0.5]];portConstraint=eastwest;rotatable=0;whiteSpace=wrap;html=1;" vertex="1" parent="SGHABH59tKvpZmnrTRFc-14">
          <mxGeometry y="61" width="180" height="30" as="geometry" />
        </mxCell>
        <mxCell id="SGHABH59tKvpZmnrTRFc-17" value="mdp" style="text;strokeColor=none;fillColor=none;align=left;verticalAlign=middle;spacingLeft=4;spacingRight=4;overflow=hidden;points=[[0,0.5],[1,0.5]];portConstraint=eastwest;rotatable=0;whiteSpace=wrap;html=1;" vertex="1" parent="SGHABH59tKvpZmnrTRFc-14">
          <mxGeometry y="91" width="180" height="30" as="geometry" />
        </mxCell>
        <mxCell id="SGHABH59tKvpZmnrTRFc-97" value="role" style="text;strokeColor=none;fillColor=none;align=left;verticalAlign=middle;spacingLeft=4;spacingRight=4;overflow=hidden;points=[[0,0.5],[1,0.5]];portConstraint=eastwest;rotatable=0;whiteSpace=wrap;html=1;" vertex="1" parent="SGHABH59tKvpZmnrTRFc-14">
          <mxGeometry y="121" width="180" height="30" as="geometry" />
        </mxCell>
        <mxCell id="SGHABH59tKvpZmnrTRFc-19" value="Responsable de la scolarite" style="swimlane;fontStyle=0;childLayout=stackLayout;horizontal=1;startSize=30;horizontalStack=0;resizeParent=1;resizeParentMax=0;resizeLast=0;collapsible=1;marginBottom=0;whiteSpace=wrap;html=1;" vertex="1" parent="1">
          <mxGeometry x="710" y="600" width="180" height="120" as="geometry" />
        </mxCell>
        <mxCell id="SGHABH59tKvpZmnrTRFc-20" value="gezrerStructureAcademique" style="text;strokeColor=none;fillColor=none;align=left;verticalAlign=middle;spacingLeft=4;spacingRight=4;overflow=hidden;points=[[0,0.5],[1,0.5]];portConstraint=eastwest;rotatable=0;whiteSpace=wrap;html=1;" vertex="1" parent="SGHABH59tKvpZmnrTRFc-19">
          <mxGeometry y="30" width="180" height="30" as="geometry" />
        </mxCell>
        <mxCell id="SGHABH59tKvpZmnrTRFc-21" value="inscriptionUtilisateur" style="text;strokeColor=none;fillColor=none;align=left;verticalAlign=middle;spacingLeft=4;spacingRight=4;overflow=hidden;points=[[0,0.5],[1,0.5]];portConstraint=eastwest;rotatable=0;whiteSpace=wrap;html=1;" vertex="1" parent="SGHABH59tKvpZmnrTRFc-19">
          <mxGeometry y="60" width="180" height="30" as="geometry" />
        </mxCell>
        <mxCell id="SGHABH59tKvpZmnrTRFc-22" value="affectterMatiere" style="text;strokeColor=none;fillColor=none;align=left;verticalAlign=middle;spacingLeft=4;spacingRight=4;overflow=hidden;points=[[0,0.5],[1,0.5]];portConstraint=eastwest;rotatable=0;whiteSpace=wrap;html=1;" vertex="1" parent="SGHABH59tKvpZmnrTRFc-19">
          <mxGeometry y="90" width="180" height="30" as="geometry" />
        </mxCell>
        <mxCell id="SGHABH59tKvpZmnrTRFc-23" value="Post" style="swimlane;fontStyle=0;childLayout=stackLayout;horizontal=1;startSize=30;horizontalStack=0;resizeParent=1;resizeParentMax=0;resizeLast=0;collapsible=1;marginBottom=0;whiteSpace=wrap;html=1;" vertex="1" parent="1">
          <mxGeometry x="600" y="330" width="140" height="120" as="geometry" />
        </mxCell>
        <mxCell id="SGHABH59tKvpZmnrTRFc-24" value="auteur:utilisateur" style="text;strokeColor=none;fillColor=none;align=left;verticalAlign=middle;spacingLeft=4;spacingRight=4;overflow=hidden;points=[[0,0.5],[1,0.5]];portConstraint=eastwest;rotatable=0;whiteSpace=wrap;html=1;" vertex="1" parent="SGHABH59tKvpZmnrTRFc-23">
          <mxGeometry y="30" width="140" height="30" as="geometry" />
        </mxCell>
        <mxCell id="SGHABH59tKvpZmnrTRFc-25" value="contenu" style="text;strokeColor=none;fillColor=none;align=left;verticalAlign=middle;spacingLeft=4;spacingRight=4;overflow=hidden;points=[[0,0.5],[1,0.5]];portConstraint=eastwest;rotatable=0;whiteSpace=wrap;html=1;" vertex="1" parent="SGHABH59tKvpZmnrTRFc-23">
          <mxGeometry y="60" width="140" height="30" as="geometry" />
        </mxCell>
        <mxCell id="SGHABH59tKvpZmnrTRFc-26" value="reponse" style="text;strokeColor=none;fillColor=none;align=left;verticalAlign=middle;spacingLeft=4;spacingRight=4;overflow=hidden;points=[[0,0.5],[1,0.5]];portConstraint=eastwest;rotatable=0;whiteSpace=wrap;html=1;" vertex="1" parent="SGHABH59tKvpZmnrTRFc-23">
          <mxGeometry y="90" width="140" height="30" as="geometry" />
        </mxCell>
        <mxCell id="SGHABH59tKvpZmnrTRFc-94" value="" style="endArrow=none;html=1;rounded=0;curved=1;exitX=1;exitY=0.5;exitDx=0;exitDy=0;entryX=1.009;entryY=0.134;entryDx=0;entryDy=0;entryPerimeter=0;" edge="1" parent="SGHABH59tKvpZmnrTRFc-23" source="SGHABH59tKvpZmnrTRFc-26" target="SGHABH59tKvpZmnrTRFc-23">
          <mxGeometry width="50" height="50" relative="1" as="geometry">
            <mxPoint x="180" y="94.5" as="sourcePoint" />
            <mxPoint x="214" y="-4.5" as="targetPoint" />
            <Array as="points">
              <mxPoint x="240" y="60" />
            </Array>
          </mxGeometry>
        </mxCell>
        <mxCell id="SGHABH59tKvpZmnrTRFc-27" value="chat2b2" style="swimlane;fontStyle=0;childLayout=stackLayout;horizontal=1;startSize=30;horizontalStack=0;resizeParent=1;resizeParentMax=0;resizeLast=0;collapsible=1;marginBottom=0;whiteSpace=wrap;html=1;" vertex="1" parent="1">
          <mxGeometry x="70" y="360" width="140" height="90" as="geometry" />
        </mxCell>
        <mxCell id="SGHABH59tKvpZmnrTRFc-28" value="enseignant" style="text;strokeColor=none;fillColor=none;align=left;verticalAlign=middle;spacingLeft=4;spacingRight=4;overflow=hidden;points=[[0,0.5],[1,0.5]];portConstraint=eastwest;rotatable=0;whiteSpace=wrap;html=1;" vertex="1" parent="SGHABH59tKvpZmnrTRFc-27">
          <mxGeometry y="30" width="140" height="30" as="geometry" />
        </mxCell>
        <mxCell id="SGHABH59tKvpZmnrTRFc-29" value="etudiant" style="text;strokeColor=none;fillColor=none;align=left;verticalAlign=middle;spacingLeft=4;spacingRight=4;overflow=hidden;points=[[0,0.5],[1,0.5]];portConstraint=eastwest;rotatable=0;whiteSpace=wrap;html=1;" vertex="1" parent="SGHABH59tKvpZmnrTRFc-27">
          <mxGeometry y="60" width="140" height="30" as="geometry" />
        </mxCell>
        <mxCell id="SGHABH59tKvpZmnrTRFc-31" value="chatClasse" style="swimlane;fontStyle=0;childLayout=stackLayout;horizontal=1;startSize=30;horizontalStack=0;resizeParent=1;resizeParentMax=0;resizeLast=0;collapsible=1;marginBottom=0;whiteSpace=wrap;html=1;" vertex="1" parent="1">
          <mxGeometry x="-120" y="360" width="140" height="60" as="geometry" />
        </mxCell>
        <mxCell id="SGHABH59tKvpZmnrTRFc-32" value="&amp;nbsp;" style="text;strokeColor=none;fillColor=none;align=left;verticalAlign=middle;spacingLeft=4;spacingRight=4;overflow=hidden;points=[[0,0.5],[1,0.5]];portConstraint=eastwest;rotatable=0;whiteSpace=wrap;html=1;" vertex="1" parent="SGHABH59tKvpZmnrTRFc-31">
          <mxGeometry y="30" width="140" height="30" as="geometry" />
        </mxCell>
        <mxCell id="SGHABH59tKvpZmnrTRFc-34" value="Chat" style="swimlane;fontStyle=0;childLayout=stackLayout;horizontal=1;startSize=30;horizontalStack=0;resizeParent=1;resizeParentMax=0;resizeLast=0;collapsible=1;marginBottom=0;whiteSpace=wrap;html=1;" vertex="1" parent="1">
          <mxGeometry x="-20" y="210" width="220" height="60" as="geometry" />
        </mxCell>
        <mxCell id="SGHABH59tKvpZmnrTRFc-35" value="paerticipant liste" style="text;strokeColor=none;fillColor=none;align=left;verticalAlign=middle;spacingLeft=4;spacingRight=4;overflow=hidden;points=[[0,0.5],[1,0.5]];portConstraint=eastwest;rotatable=0;whiteSpace=wrap;html=1;" vertex="1" parent="SGHABH59tKvpZmnrTRFc-34">
          <mxGeometry y="30" width="220" height="30" as="geometry" />
        </mxCell>
        <mxCell id="SGHABH59tKvpZmnrTRFc-37" value="type de contenu" style="swimlane;fontStyle=0;childLayout=stackLayout;horizontal=1;startSize=30;horizontalStack=0;resizeParent=1;resizeParentMax=0;resizeLast=0;collapsible=1;marginBottom=0;whiteSpace=wrap;html=1;" vertex="1" parent="1">
          <mxGeometry x="260" y="180" width="220" height="90" as="geometry" />
        </mxCell>
        <mxCell id="SGHABH59tKvpZmnrTRFc-38" value="image,video" style="text;strokeColor=none;fillColor=none;align=left;verticalAlign=middle;spacingLeft=4;spacingRight=4;overflow=hidden;points=[[0,0.5],[1,0.5]];portConstraint=eastwest;rotatable=0;whiteSpace=wrap;html=1;" vertex="1" parent="SGHABH59tKvpZmnrTRFc-37">
          <mxGeometry y="30" width="220" height="30" as="geometry" />
        </mxCell>
        <mxCell id="SGHABH59tKvpZmnrTRFc-39" value="texte,pdf," style="text;strokeColor=none;fillColor=none;align=left;verticalAlign=middle;spacingLeft=4;spacingRight=4;overflow=hidden;points=[[0,0.5],[1,0.5]];portConstraint=eastwest;rotatable=0;whiteSpace=wrap;html=1;" vertex="1" parent="SGHABH59tKvpZmnrTRFc-37">
          <mxGeometry y="60" width="220" height="30" as="geometry" />
        </mxCell>
        <mxCell id="SGHABH59tKvpZmnrTRFc-40" value="forum" style="swimlane;fontStyle=0;childLayout=stackLayout;horizontal=1;startSize=30;horizontalStack=0;resizeParent=1;resizeParentMax=0;resizeLast=0;collapsible=1;marginBottom=0;whiteSpace=wrap;html=1;" vertex="1" parent="1">
          <mxGeometry x="540" y="190" width="220" height="90" as="geometry" />
        </mxCell>
        <mxCell id="SGHABH59tKvpZmnrTRFc-41" value="matiere" style="text;strokeColor=none;fillColor=none;align=left;verticalAlign=middle;spacingLeft=4;spacingRight=4;overflow=hidden;points=[[0,0.5],[1,0.5]];portConstraint=eastwest;rotatable=0;whiteSpace=wrap;html=1;" vertex="1" parent="SGHABH59tKvpZmnrTRFc-40">
          <mxGeometry y="30" width="220" height="30" as="geometry" />
        </mxCell>
        <mxCell id="SGHABH59tKvpZmnrTRFc-42" value="post" style="text;strokeColor=none;fillColor=none;align=left;verticalAlign=middle;spacingLeft=4;spacingRight=4;overflow=hidden;points=[[0,0.5],[1,0.5]];portConstraint=eastwest;rotatable=0;whiteSpace=wrap;html=1;" vertex="1" parent="SGHABH59tKvpZmnrTRFc-40">
          <mxGeometry y="60" width="220" height="30" as="geometry" />
        </mxCell>
        <mxCell id="SGHABH59tKvpZmnrTRFc-43" value="typeEvaluation" style="swimlane;fontStyle=0;childLayout=stackLayout;horizontal=1;startSize=30;horizontalStack=0;resizeParent=1;resizeParentMax=0;resizeLast=0;collapsible=1;marginBottom=0;whiteSpace=wrap;html=1;" vertex="1" parent="1">
          <mxGeometry x="800" y="200" width="170" height="60" as="geometry" />
        </mxCell>
        <mxCell id="SGHABH59tKvpZmnrTRFc-44" value="quiz,Devoir" style="text;strokeColor=none;fillColor=none;align=left;verticalAlign=middle;spacingLeft=4;spacingRight=4;overflow=hidden;points=[[0,0.5],[1,0.5]];portConstraint=eastwest;rotatable=0;whiteSpace=wrap;html=1;" vertex="1" parent="SGHABH59tKvpZmnrTRFc-43">
          <mxGeometry y="30" width="170" height="30" as="geometry" />
        </mxCell>
        <mxCell id="SGHABH59tKvpZmnrTRFc-53" style="edgeStyle=orthogonalEdgeStyle;curved=1;rounded=0;orthogonalLoop=1;jettySize=auto;html=1;exitX=0.25;exitY=0;exitDx=0;exitDy=0;entryX=0.11;entryY=1.105;entryDx=0;entryDy=0;entryPerimeter=0;" edge="1" parent="1" source="T3X0o6zHJ9nhCLRSBqEm-609" target="T3X0o6zHJ9nhCLRSBqEm-603">
          <mxGeometry relative="1" as="geometry">
            <mxPoint x="-715.44" y="710.24" as="targetPoint" />
            <Array as="points">
              <mxPoint x="-775" y="760" />
              <mxPoint x="-715" y="760" />
            </Array>
          </mxGeometry>
        </mxCell>
        <mxCell id="SGHABH59tKvpZmnrTRFc-57" style="edgeStyle=orthogonalEdgeStyle;curved=1;rounded=0;orthogonalLoop=1;jettySize=auto;html=1;exitX=0.5;exitY=0;exitDx=0;exitDy=0;entryX=0.799;entryY=1.087;entryDx=0;entryDy=0;entryPerimeter=0;" edge="1" parent="1" source="T3X0o6zHJ9nhCLRSBqEm-641" target="T3X0o6zHJ9nhCLRSBqEm-603">
          <mxGeometry relative="1" as="geometry">
            <mxPoint x="-617.86" y="711.95" as="targetPoint" />
            <Array as="points">
              <mxPoint x="-449" y="740" />
              <mxPoint x="-618" y="740" />
            </Array>
          </mxGeometry>
        </mxCell>
        <mxCell id="SGHABH59tKvpZmnrTRFc-66" value="" style="endArrow=none;html=1;rounded=0;curved=1;entryX=0.239;entryY=0.999;entryDx=0;entryDy=0;entryPerimeter=0;" edge="1" parent="1" target="T3X0o6zHJ9nhCLRSBqEm-600">
          <mxGeometry width="50" height="50" relative="1" as="geometry">
            <mxPoint x="-700" y="590" as="sourcePoint" />
            <mxPoint x="-650" y="540" as="targetPoint" />
            <Array as="points">
              <mxPoint x="-640" y="490" />
            </Array>
          </mxGeometry>
        </mxCell>
        <mxCell id="SGHABH59tKvpZmnrTRFc-67" value="" style="endArrow=none;html=1;rounded=0;curved=1;exitX=0.606;exitY=0.87;exitDx=0;exitDy=0;exitPerimeter=0;entryX=0.442;entryY=-0.016;entryDx=0;entryDy=0;entryPerimeter=0;" edge="1" parent="1" source="T3X0o6zHJ9nhCLRSBqEm-600" target="T3X0o6zHJ9nhCLRSBqEm-613">
          <mxGeometry width="50" height="50" relative="1" as="geometry">
            <mxPoint x="-510" y="560" as="sourcePoint" />
            <mxPoint x="-470" y="580" as="targetPoint" />
            <Array as="points">
              <mxPoint x="-520" y="540" />
            </Array>
          </mxGeometry>
        </mxCell>
        <mxCell id="SGHABH59tKvpZmnrTRFc-68" value="" style="endArrow=none;html=1;rounded=0;curved=1;exitX=0.5;exitY=0;exitDx=0;exitDy=0;entryX=0.484;entryY=1.037;entryDx=0;entryDy=0;entryPerimeter=0;" edge="1" parent="1" source="T3X0o6zHJ9nhCLRSBqEm-645" target="T3X0o6zHJ9nhCLRSBqEm-643">
          <mxGeometry width="50" height="50" relative="1" as="geometry">
            <mxPoint x="-429" y="980" as="sourcePoint" />
            <mxPoint x="-448.43999999999994" y="920.51" as="targetPoint" />
            <Array as="points">
              <mxPoint x="-448" y="970" />
              <mxPoint x="-448" y="940" />
            </Array>
          </mxGeometry>
        </mxCell>
        <mxCell id="SGHABH59tKvpZmnrTRFc-69" value="" style="endArrow=none;html=1;rounded=0;curved=1;entryX=0.534;entryY=1.102;entryDx=0;entryDy=0;entryPerimeter=0;exitX=0.5;exitY=0;exitDx=0;exitDy=0;" edge="1" parent="1" source="T3X0o6zHJ9nhCLRSBqEm-649" target="T3X0o6zHJ9nhCLRSBqEm-647">
          <mxGeometry width="50" height="50" relative="1" as="geometry">
            <mxPoint x="-474" y="1230" as="sourcePoint" />
            <mxPoint x="-455.30000000000007" y="1138.6499999999999" as="targetPoint" />
            <Array as="points" />
          </mxGeometry>
        </mxCell>
        <mxCell id="SGHABH59tKvpZmnrTRFc-70" value="" style="endArrow=none;html=1;rounded=0;curved=1;" edge="1" parent="1">
          <mxGeometry width="50" height="50" relative="1" as="geometry">
            <mxPoint x="-413" y="584" as="sourcePoint" />
            <mxPoint x="270" y="440" as="targetPoint" />
            <Array as="points">
              <mxPoint x="-363" y="544" />
              <mxPoint x="80" y="540" />
            </Array>
          </mxGeometry>
        </mxCell>
        <mxCell id="SGHABH59tKvpZmnrTRFc-71" value="" style="endArrow=none;html=1;rounded=0;curved=1;" edge="1" parent="1">
          <mxGeometry width="50" height="50" relative="1" as="geometry">
            <mxPoint x="-50" y="584" as="sourcePoint" />
            <mxPoint x="270" y="440" as="targetPoint" />
            <Array as="points" />
          </mxGeometry>
        </mxCell>
        <mxCell id="SGHABH59tKvpZmnrTRFc-72" value="" style="endArrow=none;html=1;rounded=0;curved=1;" edge="1" parent="1">
          <mxGeometry width="50" height="50" relative="1" as="geometry">
            <mxPoint x="140" y="590" as="sourcePoint" />
            <mxPoint x="270" y="440" as="targetPoint" />
            <Array as="points">
              <mxPoint x="190" y="550" />
              <mxPoint x="240" y="480" />
            </Array>
          </mxGeometry>
        </mxCell>
        <mxCell id="SGHABH59tKvpZmnrTRFc-73" value="" style="endArrow=none;html=1;rounded=0;curved=1;entryX=0.001;entryY=0.126;entryDx=0;entryDy=0;entryPerimeter=0;" edge="1" parent="1" source="T3X0o6zHJ9nhCLRSBqEm-616" target="T3X0o6zHJ9nhCLRSBqEm-629">
          <mxGeometry width="50" height="50" relative="1" as="geometry">
            <mxPoint x="-370" y="770" as="sourcePoint" />
            <mxPoint x="-150" y="763" as="targetPoint" />
            <Array as="points">
              <mxPoint x="-310" y="740" />
            </Array>
          </mxGeometry>
        </mxCell>
        <mxCell id="SGHABH59tKvpZmnrTRFc-74" value="" style="endArrow=none;html=1;rounded=0;curved=1;exitX=0.97;exitY=1.049;exitDx=0;exitDy=0;exitPerimeter=0;entryX=-0.012;entryY=-0.102;entryDx=0;entryDy=0;entryPerimeter=0;" edge="1" parent="1" source="T3X0o6zHJ9nhCLRSBqEm-603" target="T3X0o6zHJ9nhCLRSBqEm-630">
          <mxGeometry width="50" height="50" relative="1" as="geometry">
            <mxPoint x="-340" y="820" as="sourcePoint" />
            <mxPoint x="-290" y="770" as="targetPoint" />
            <Array as="points">
              <mxPoint x="-270" y="800" />
            </Array>
          </mxGeometry>
        </mxCell>
        <mxCell id="SGHABH59tKvpZmnrTRFc-76" value="" style="endArrow=none;html=1;rounded=0;curved=1;exitX=0.423;exitY=-0.014;exitDx=0;exitDy=0;exitPerimeter=0;entryX=0.494;entryY=0.898;entryDx=0;entryDy=0;entryPerimeter=0;" edge="1" parent="1" source="T3X0o6zHJ9nhCLRSBqEm-633" target="T3X0o6zHJ9nhCLRSBqEm-632">
          <mxGeometry width="50" height="50" relative="1" as="geometry">
            <mxPoint x="-102" y="940" as="sourcePoint" />
            <mxPoint x="-52" y="890" as="targetPoint" />
            <Array as="points">
              <mxPoint x="-82" y="920" />
            </Array>
          </mxGeometry>
        </mxCell>
        <mxCell id="SGHABH59tKvpZmnrTRFc-77" value="" style="endArrow=none;html=1;rounded=0;curved=1;entryX=0.183;entryY=1.082;entryDx=0;entryDy=0;entryPerimeter=0;" edge="1" parent="1" target="T3X0o6zHJ9nhCLRSBqEm-607">
          <mxGeometry width="50" height="50" relative="1" as="geometry">
            <mxPoint x="-40" y="760" as="sourcePoint" />
            <mxPoint x="98.56000000000017" y="710.5699999999999" as="targetPoint" />
            <Array as="points">
              <mxPoint x="10" y="720" />
            </Array>
          </mxGeometry>
        </mxCell>
        <mxCell id="SGHABH59tKvpZmnrTRFc-78" value="" style="endArrow=none;html=1;rounded=0;curved=1;exitX=0.423;exitY=-0.014;exitDx=0;exitDy=0;exitPerimeter=0;entryX=0.494;entryY=0.898;entryDx=0;entryDy=0;entryPerimeter=0;" edge="1" parent="1">
          <mxGeometry width="50" height="50" relative="1" as="geometry">
            <mxPoint x="-100" y="1110" as="sourcePoint" />
            <mxPoint x="-90" y="1038" as="targetPoint" />
            <Array as="points">
              <mxPoint x="-94" y="1081" />
            </Array>
          </mxGeometry>
        </mxCell>
        <mxCell id="SGHABH59tKvpZmnrTRFc-79" value="" style="endArrow=none;html=1;rounded=0;curved=1;exitX=0.423;exitY=-0.014;exitDx=0;exitDy=0;exitPerimeter=0;" edge="1" parent="1" target="T3X0o6zHJ9nhCLRSBqEm-627">
          <mxGeometry width="50" height="50" relative="1" as="geometry">
            <mxPoint x="-100" y="1280" as="sourcePoint" />
            <mxPoint x="-90" y="1208" as="targetPoint" />
            <Array as="points">
              <mxPoint x="-94" y="1251" />
            </Array>
          </mxGeometry>
        </mxCell>
        <mxCell id="SGHABH59tKvpZmnrTRFc-80" value="" style="endArrow=none;html=1;rounded=0;curved=1;exitX=0.423;exitY=-0.014;exitDx=0;exitDy=0;exitPerimeter=0;entryX=0.546;entryY=0.928;entryDx=0;entryDy=0;entryPerimeter=0;" edge="1" parent="1" target="T3X0o6zHJ9nhCLRSBqEm-623">
          <mxGeometry width="50" height="50" relative="1" as="geometry">
            <mxPoint x="-82" y="1452" as="sourcePoint" />
            <mxPoint x="-72" y="1380" as="targetPoint" />
            <Array as="points">
              <mxPoint x="-76" y="1423" />
            </Array>
          </mxGeometry>
        </mxCell>
        <mxCell id="SGHABH59tKvpZmnrTRFc-81" value="" style="endArrow=none;html=1;rounded=0;curved=1;exitX=1;exitY=0.25;exitDx=0;exitDy=0;entryX=0.055;entryY=1.049;entryDx=0;entryDy=0;entryPerimeter=0;" edge="1" parent="1" source="T3X0o6zHJ9nhCLRSBqEm-629" target="SGHABH59tKvpZmnrTRFc-22">
          <mxGeometry width="50" height="50" relative="1" as="geometry">
            <mxPoint x="310" y="856" as="sourcePoint" />
            <mxPoint x="320" y="784" as="targetPoint" />
            <Array as="points">
              <mxPoint x="316" y="827" />
            </Array>
          </mxGeometry>
        </mxCell>
        <mxCell id="SGHABH59tKvpZmnrTRFc-82" value="" style="endArrow=none;html=1;rounded=0;curved=1;exitX=0.1;exitY=0.027;exitDx=0;exitDy=0;exitPerimeter=0;entryX=0.268;entryY=1.047;entryDx=0;entryDy=0;entryPerimeter=0;" edge="1" parent="1" source="T3X0o6zHJ9nhCLRSBqEm-617" target="SGHABH59tKvpZmnrTRFc-97">
          <mxGeometry width="50" height="50" relative="1" as="geometry">
            <mxPoint x="360" y="585" as="sourcePoint" />
            <mxPoint x="330" y="440" as="targetPoint" />
            <Array as="points">
              <mxPoint x="320" y="540" />
            </Array>
          </mxGeometry>
        </mxCell>
        <mxCell id="SGHABH59tKvpZmnrTRFc-83" value="" style="endArrow=none;html=1;rounded=0;curved=1;exitX=0.892;exitY=-0.018;exitDx=0;exitDy=0;exitPerimeter=0;entryX=0.897;entryY=1.11;entryDx=0;entryDy=0;entryPerimeter=0;" edge="1" parent="1" source="SGHABH59tKvpZmnrTRFc-10" target="SGHABH59tKvpZmnrTRFc-97">
          <mxGeometry width="50" height="50" relative="1" as="geometry">
            <mxPoint x="600" y="590" as="sourcePoint" />
            <mxPoint x="420" y="430" as="targetPoint" />
            <Array as="points">
              <mxPoint x="530" y="570" />
            </Array>
          </mxGeometry>
        </mxCell>
        <mxCell id="SGHABH59tKvpZmnrTRFc-84" value="" style="endArrow=none;html=1;rounded=0;curved=1;exitX=0.892;exitY=-0.018;exitDx=0;exitDy=0;exitPerimeter=0;entryX=1.001;entryY=0.923;entryDx=0;entryDy=0;entryPerimeter=0;" edge="1" parent="1" target="SGHABH59tKvpZmnrTRFc-15">
          <mxGeometry width="50" height="50" relative="1" as="geometry">
            <mxPoint x="797" y="600" as="sourcePoint" />
            <mxPoint x="460" y="372" as="targetPoint" />
            <Array as="points">
              <mxPoint x="788" y="563" />
            </Array>
          </mxGeometry>
        </mxCell>
        <mxCell id="SGHABH59tKvpZmnrTRFc-86" value="" style="endArrow=classic;html=1;rounded=0;curved=1;entryX=0.072;entryY=0.928;entryDx=0;entryDy=0;entryPerimeter=0;" edge="1" parent="1">
          <mxGeometry width="50" height="50" relative="1" as="geometry">
            <mxPoint x="-90" y="360" as="sourcePoint" />
            <mxPoint x="-4.1599999999998545" y="267.8399999999999" as="targetPoint" />
          </mxGeometry>
        </mxCell>
        <mxCell id="SGHABH59tKvpZmnrTRFc-88" value="" style="endArrow=classic;html=1;rounded=0;curved=1;entryX=0.212;entryY=0.958;entryDx=0;entryDy=0;entryPerimeter=0;" edge="1" parent="1">
          <mxGeometry width="50" height="50" relative="1" as="geometry">
            <mxPoint x="-55" y="360" as="sourcePoint" />
            <mxPoint x="26.6400000000001" y="268.7399999999998" as="targetPoint" />
          </mxGeometry>
        </mxCell>
        <mxCell id="SGHABH59tKvpZmnrTRFc-89" value="" style="endArrow=classic;html=1;rounded=0;curved=1;entryX=0.427;entryY=1.049;entryDx=0;entryDy=0;entryPerimeter=0;exitX=0.094;exitY=-0.01;exitDx=0;exitDy=0;exitPerimeter=0;" edge="1" parent="1" source="SGHABH59tKvpZmnrTRFc-27">
          <mxGeometry width="50" height="50" relative="1" as="geometry">
            <mxPoint x="70" y="370" as="sourcePoint" />
            <mxPoint x="73.94000000000028" y="271.47" as="targetPoint" />
            <Array as="points" />
          </mxGeometry>
        </mxCell>
        <mxCell id="SGHABH59tKvpZmnrTRFc-90" value="" style="endArrow=classic;html=1;rounded=0;curved=1;entryX=0.427;entryY=1.049;entryDx=0;entryDy=0;entryPerimeter=0;exitX=0.094;exitY=-0.01;exitDx=0;exitDy=0;exitPerimeter=0;" edge="1" parent="1">
          <mxGeometry width="50" height="50" relative="1" as="geometry">
            <mxPoint x="149" y="358" as="sourcePoint" />
            <mxPoint x="140" y="270" as="targetPoint" />
            <Array as="points" />
          </mxGeometry>
        </mxCell>
        <mxCell id="SGHABH59tKvpZmnrTRFc-91" value="" style="endArrow=none;html=1;rounded=0;curved=1;exitX=0.132;exitY=-0.026;exitDx=0;exitDy=0;exitPerimeter=0;entryX=0.956;entryY=1.14;entryDx=0;entryDy=0;entryPerimeter=0;" edge="1" parent="1" source="SGHABH59tKvpZmnrTRFc-14">
          <mxGeometry width="50" height="50" relative="1" as="geometry">
            <mxPoint x="230" y="365" as="sourcePoint" />
            <mxPoint x="190.32000000000016" y="274.20000000000005" as="targetPoint" />
            <Array as="points" />
          </mxGeometry>
        </mxCell>
        <mxCell id="SGHABH59tKvpZmnrTRFc-92" value="" style="endArrow=classic;html=1;rounded=0;curved=1;exitX=0;exitY=0;exitDx=0;exitDy=0;entryX=0.705;entryY=1.04;entryDx=0;entryDy=0;entryPerimeter=0;" edge="1" parent="1" source="SGHABH59tKvpZmnrTRFc-10" target="SGHABH59tKvpZmnrTRFc-97">
          <mxGeometry width="50" height="50" relative="1" as="geometry">
            <mxPoint x="579" y="600" as="sourcePoint" />
            <mxPoint x="380" y="430" as="targetPoint" />
            <Array as="points" />
          </mxGeometry>
        </mxCell>
        <mxCell id="SGHABH59tKvpZmnrTRFc-93" value="" style="endArrow=classic;html=1;rounded=0;curved=1;entryX=1;entryY=0.5;entryDx=0;entryDy=0;exitX=0;exitY=0;exitDx=0;exitDy=0;" edge="1" parent="1" source="SGHABH59tKvpZmnrTRFc-19" target="SGHABH59tKvpZmnrTRFc-17">
          <mxGeometry width="50" height="50" relative="1" as="geometry">
            <mxPoint x="694" y="600" as="sourcePoint" />
            <mxPoint x="580" y="502" as="targetPoint" />
            <Array as="points" />
          </mxGeometry>
        </mxCell>
        <mxCell id="SGHABH59tKvpZmnrTRFc-95" value="" style="endArrow=none;html=1;rounded=0;curved=1;exitX=0.357;exitY=0;exitDx=0;exitDy=0;exitPerimeter=0;entryX=0.473;entryY=1.11;entryDx=0;entryDy=0;entryPerimeter=0;" edge="1" parent="1" source="SGHABH59tKvpZmnrTRFc-23" target="SGHABH59tKvpZmnrTRFc-42">
          <mxGeometry width="50" height="50" relative="1" as="geometry">
            <mxPoint x="630" y="370" as="sourcePoint" />
            <mxPoint x="664" y="271" as="targetPoint" />
            <Array as="points">
              <mxPoint x="646" y="308" />
            </Array>
          </mxGeometry>
        </mxCell>
        <mxCell id="SGHABH59tKvpZmnrTRFc-98" value="*" style="text;html=1;align=center;verticalAlign=middle;resizable=0;points=[];autosize=1;strokeColor=none;fillColor=none;" vertex="1" parent="1">
          <mxGeometry x="-485" y="1208" width="30" height="30" as="geometry" />
        </mxCell>
        <mxCell id="SGHABH59tKvpZmnrTRFc-99" value="1" style="text;html=1;align=center;verticalAlign=middle;resizable=0;points=[];autosize=1;strokeColor=none;fillColor=none;" vertex="1" parent="1">
          <mxGeometry x="-485" y="1108" width="30" height="30" as="geometry" />
        </mxCell>
        <mxCell id="SGHABH59tKvpZmnrTRFc-100" value="*" style="text;html=1;align=center;verticalAlign=middle;resizable=0;points=[];autosize=1;strokeColor=none;fillColor=none;" vertex="1" parent="1">
          <mxGeometry x="-485" y="978" width="30" height="30" as="geometry" />
        </mxCell>
        <mxCell id="SGHABH59tKvpZmnrTRFc-101" value="1" style="text;html=1;align=center;verticalAlign=middle;resizable=0;points=[];autosize=1;strokeColor=none;fillColor=none;" vertex="1" parent="1">
          <mxGeometry x="-495" y="898" width="30" height="30" as="geometry" />
        </mxCell>
        <mxCell id="SGHABH59tKvpZmnrTRFc-102" value="*" style="text;html=1;align=center;verticalAlign=middle;resizable=0;points=[];autosize=1;strokeColor=none;fillColor=none;" vertex="1" parent="1">
          <mxGeometry x="-605" y="678" width="30" height="30" as="geometry" />
        </mxCell>
        <mxCell id="SGHABH59tKvpZmnrTRFc-103" value="1" style="text;html=1;align=center;verticalAlign=middle;resizable=0;points=[];autosize=1;strokeColor=none;fillColor=none;" vertex="1" parent="1">
          <mxGeometry x="-175" y="778" width="30" height="30" as="geometry" />
        </mxCell>
        <mxCell id="SGHABH59tKvpZmnrTRFc-104" value="1" style="text;html=1;align=center;verticalAlign=middle;resizable=0;points=[];autosize=1;strokeColor=none;fillColor=none;" vertex="1" parent="1">
          <mxGeometry x="-375" y="698" width="30" height="30" as="geometry" />
        </mxCell>
        <mxCell id="SGHABH59tKvpZmnrTRFc-105" value="*" style="text;html=1;align=center;verticalAlign=middle;resizable=0;points=[];autosize=1;strokeColor=none;fillColor=none;" vertex="1" parent="1">
          <mxGeometry x="-185" y="738" width="30" height="30" as="geometry" />
        </mxCell>
        <mxCell id="SGHABH59tKvpZmnrTRFc-106" value="1" style="text;html=1;align=center;verticalAlign=middle;resizable=0;points=[];autosize=1;strokeColor=none;fillColor=none;" vertex="1" parent="1">
          <mxGeometry x="-725" y="568" width="30" height="30" as="geometry" />
        </mxCell>
        <mxCell id="SGHABH59tKvpZmnrTRFc-107" value="1" style="text;html=1;align=center;verticalAlign=middle;resizable=0;points=[];autosize=1;strokeColor=none;fillColor=none;" vertex="1" parent="1">
          <mxGeometry x="-685" y="488" width="30" height="30" as="geometry" />
        </mxCell>
        <mxCell id="SGHABH59tKvpZmnrTRFc-108" value="1" style="text;html=1;align=center;verticalAlign=middle;resizable=0;points=[];autosize=1;strokeColor=none;fillColor=none;" vertex="1" parent="1">
          <mxGeometry x="-595" y="498" width="30" height="30" as="geometry" />
        </mxCell>
        <mxCell id="SGHABH59tKvpZmnrTRFc-109" value="1" style="text;html=1;align=center;verticalAlign=middle;resizable=0;points=[];autosize=1;strokeColor=none;fillColor=none;" vertex="1" parent="1">
          <mxGeometry x="-515" y="558" width="30" height="30" as="geometry" />
        </mxCell>
        <mxCell id="SGHABH59tKvpZmnrTRFc-110" value="1" style="text;html=1;align=center;verticalAlign=middle;resizable=0;points=[];autosize=1;strokeColor=none;fillColor=none;" vertex="1" parent="1">
          <mxGeometry x="-105" y="880" width="30" height="30" as="geometry" />
        </mxCell>
        <mxCell id="SGHABH59tKvpZmnrTRFc-111" value="1" style="text;html=1;align=center;verticalAlign=middle;resizable=0;points=[];autosize=1;strokeColor=none;fillColor=none;" vertex="1" parent="1">
          <mxGeometry x="-125" y="918" width="30" height="30" as="geometry" />
        </mxCell>
        <mxCell id="SGHABH59tKvpZmnrTRFc-112" value="1" style="text;html=1;align=center;verticalAlign=middle;resizable=0;points=[];autosize=1;strokeColor=none;fillColor=none;" vertex="1" parent="1">
          <mxGeometry x="-125" y="1038" width="30" height="30" as="geometry" />
        </mxCell>
        <mxCell id="SGHABH59tKvpZmnrTRFc-113" value="1" style="text;html=1;align=center;verticalAlign=middle;resizable=0;points=[];autosize=1;strokeColor=none;fillColor=none;" vertex="1" parent="1">
          <mxGeometry x="-135" y="1078" width="30" height="30" as="geometry" />
        </mxCell>
        <mxCell id="SGHABH59tKvpZmnrTRFc-114" value="1" style="text;html=1;align=center;verticalAlign=middle;resizable=0;points=[];autosize=1;strokeColor=none;fillColor=none;" vertex="1" parent="1">
          <mxGeometry x="-135" y="1198" width="30" height="30" as="geometry" />
        </mxCell>
        <mxCell id="SGHABH59tKvpZmnrTRFc-115" value="1" style="text;html=1;align=center;verticalAlign=middle;resizable=0;points=[];autosize=1;strokeColor=none;fillColor=none;" vertex="1" parent="1">
          <mxGeometry x="-135" y="1248" width="30" height="30" as="geometry" />
        </mxCell>
        <mxCell id="SGHABH59tKvpZmnrTRFc-116" value="1" style="text;html=1;align=center;verticalAlign=middle;resizable=0;points=[];autosize=1;strokeColor=none;fillColor=none;" vertex="1" parent="1">
          <mxGeometry x="-105" y="1368" width="30" height="30" as="geometry" />
        </mxCell>
        <mxCell id="SGHABH59tKvpZmnrTRFc-117" value="1" style="text;html=1;align=center;verticalAlign=middle;resizable=0;points=[];autosize=1;strokeColor=none;fillColor=none;" vertex="1" parent="1">
          <mxGeometry x="-115" y="1418" width="30" height="30" as="geometry" />
        </mxCell>
        <mxCell id="SGHABH59tKvpZmnrTRFc-118" value="*" style="text;html=1;align=center;verticalAlign=middle;resizable=0;points=[];autosize=1;strokeColor=none;fillColor=none;" vertex="1" parent="1">
          <mxGeometry x="-55" y="718" width="30" height="30" as="geometry" />
        </mxCell>
        <mxCell id="SGHABH59tKvpZmnrTRFc-119" value="1" style="text;html=1;align=center;verticalAlign=middle;resizable=0;points=[];autosize=1;strokeColor=none;fillColor=none;" vertex="1" parent="1">
          <mxGeometry x="35" y="668" width="30" height="30" as="geometry" />
        </mxCell>
        <mxCell id="SGHABH59tKvpZmnrTRFc-120" value="1" style="text;html=1;align=center;verticalAlign=middle;resizable=0;points=[];autosize=1;strokeColor=none;fillColor=none;" vertex="1" parent="1">
          <mxGeometry x="305" y="568" width="30" height="30" as="geometry" />
        </mxCell>
        <mxCell id="SGHABH59tKvpZmnrTRFc-121" value="1" style="text;html=1;align=center;verticalAlign=middle;resizable=0;points=[];autosize=1;strokeColor=none;fillColor=none;" vertex="1" parent="1">
          <mxGeometry x="315" y="468" width="30" height="30" as="geometry" />
        </mxCell>
        <mxCell id="SGHABH59tKvpZmnrTRFc-122" value="1" style="text;html=1;align=center;verticalAlign=middle;resizable=0;points=[];autosize=1;strokeColor=none;fillColor=none;" vertex="1" parent="1">
          <mxGeometry x="165" y="268" width="30" height="30" as="geometry" />
        </mxCell>
        <mxCell id="SGHABH59tKvpZmnrTRFc-123" value="1" style="text;html=1;align=center;verticalAlign=middle;resizable=0;points=[];autosize=1;strokeColor=none;fillColor=none;" vertex="1" parent="1">
          <mxGeometry x="235" y="288" width="30" height="30" as="geometry" />
        </mxCell>
        <mxCell id="SGHABH59tKvpZmnrTRFc-124" value="*" style="text;html=1;align=center;verticalAlign=middle;resizable=0;points=[];autosize=1;strokeColor=none;fillColor=none;" vertex="1" parent="1">
          <mxGeometry x="445" y="458" width="30" height="30" as="geometry" />
        </mxCell>
        <mxCell id="SGHABH59tKvpZmnrTRFc-125" value="1" style="text;html=1;align=center;verticalAlign=middle;resizable=0;points=[];autosize=1;strokeColor=none;fillColor=none;" vertex="1" parent="1">
          <mxGeometry x="595" y="558" width="30" height="30" as="geometry" />
        </mxCell>
        <mxCell id="SGHABH59tKvpZmnrTRFc-126" value="*" style="text;html=1;align=center;verticalAlign=middle;resizable=0;points=[];autosize=1;strokeColor=none;fillColor=none;" vertex="1" parent="1">
          <mxGeometry x="455" y="348" width="30" height="30" as="geometry" />
        </mxCell>
        <mxCell id="SGHABH59tKvpZmnrTRFc-127" value="1" style="text;html=1;align=center;verticalAlign=middle;resizable=0;points=[];autosize=1;strokeColor=none;fillColor=none;" vertex="1" parent="1">
          <mxGeometry x="785" y="558" width="30" height="30" as="geometry" />
        </mxCell>
        <mxCell id="SGHABH59tKvpZmnrTRFc-128" value="*" style="text;html=1;align=center;verticalAlign=middle;resizable=0;points=[];autosize=1;strokeColor=none;fillColor=none;" vertex="1" parent="1">
          <mxGeometry x="735" y="398" width="30" height="30" as="geometry" />
        </mxCell>
        <mxCell id="SGHABH59tKvpZmnrTRFc-129" value="1" style="text;html=1;align=center;verticalAlign=middle;resizable=0;points=[];autosize=1;strokeColor=none;fillColor=none;" vertex="1" parent="1">
          <mxGeometry x="735" y="318" width="30" height="30" as="geometry" />
        </mxCell>
        <mxCell id="SGHABH59tKvpZmnrTRFc-130" value="1" style="text;html=1;align=center;verticalAlign=middle;resizable=0;points=[];autosize=1;strokeColor=none;fillColor=none;" vertex="1" parent="1">
          <mxGeometry x="625" y="278" width="30" height="30" as="geometry" />
        </mxCell>
        <mxCell id="SGHABH59tKvpZmnrTRFc-132" value="*" style="text;html=1;align=center;verticalAlign=middle;resizable=0;points=[];autosize=1;strokeColor=none;fillColor=none;" vertex="1" parent="1">
          <mxGeometry x="620" y="308" width="30" height="30" as="geometry" />
        </mxCell>
      </root>
    </mxGraphModel>
  </diagram>
  <diagram id="IKixwXrxo9oGWXNsyFxC" name="Page-2">
    <mxGraphModel dx="1363" dy="592" grid="1" gridSize="10" guides="1" tooltips="1" connect="1" arrows="1" fold="1" page="1" pageScale="1" pageWidth="827" pageHeight="1169" math="0" shadow="0">
      <root>
        <mxCell id="0" />
        <mxCell id="1" parent="0" />
      </root>
    </mxGraphModel>
  </diagram>
</mxfile>
